
<svg xmlns="http://www.w3.org/2000/svg" xmlns:xlink="http://www.w3.org/1999/xlink" x="0px" y="0px" viewBox="0 0 512 512" enable-background="new 0 0 512 512" style="display: block; width: 100%; height: auto; margin-top: 4%; overflow: hidden" class="shadow-lg">
<pattern width="63" height="65" patternUnits="userSpaceOnUse" id="New_Pattern_4" viewBox="59.114 -85.126 63 65" overflow="visible">
	<g>
		<rect x="59.114" y="-85.126" fill="none" width="63" height="65"></rect>
		<g>
			<g>
				<path fill="#305efc" class="fill-1" d="M121.992-58.938c0.751,0.289,1.566,0.498,2.405,0.744c0.857,0.145,1.741,0.382,2.672,0.427
					c1.853,0.238,3.845,0.127,5.865-0.205c2.02-0.357,4.061-1.028,5.994-2.006c0.472-0.266,0.946-0.533,1.421-0.8
					c0.474-0.271,0.93-0.63,1.395-0.946l0.694-0.493l0.586-0.501l0.586-0.502l0.293-0.251l0.201-0.176l0.139-0.134
					c1.415-1.327,2.908-2.515,4.585-3.402c1.677-0.851,3.399-1.596,5.173-1.983c1.766-0.354,3.521-0.637,5.2-0.558
					c0.844-0.042,1.647,0.13,2.444,0.165c0.779,0.135,1.549,0.234,2.266,0.418c1.435,0.368,2.739,0.809,3.852,1.314
					c0.546,0.27,1.084,0.495,1.543,0.753c0.46,0.267,0.883,0.512,1.265,0.733c0.756,0.478,1.33,0.914,1.732,1.182
					c0.403,0.271,0.597,0.44,0.597,0.44s-0.157-0.21-0.491-0.562c-0.343-0.344-0.78-0.908-1.458-1.516
					c-0.352-0.301-0.741-0.634-1.165-0.996c-0.428-0.366-0.947-0.664-1.477-1.037c-1.081-0.706-2.387-1.388-3.896-1.95
					c-0.751-0.288-1.566-0.497-2.404-0.743c-0.429-0.081-0.865-0.163-1.308-0.247c-0.443-0.095-0.898-0.151-1.363-0.18
					c-1.852-0.236-3.844-0.129-5.864,0.204c-2.02,0.356-4.059,1.031-5.994,2.004c-1.933,0.978-3.711,2.337-5.315,3.802l-0.128,0.123
					l-0.028,0.025l-0.072,0.064l-0.289,0.256l-0.577,0.512l-0.576,0.51l-0.56,0.4c-0.381,0.261-0.722,0.553-1.131,0.793
					l-1.224,0.717c-1.679,0.846-3.399,1.595-5.173,1.981c-1.766,0.354-3.521,0.634-5.199,0.557
					c-0.843,0.042-1.647-0.129-2.443-0.165c-0.779-0.135-1.548-0.234-2.266-0.417c-1.435-0.367-2.739-0.809-3.852-1.313
					c-0.547-0.27-1.082-0.493-1.546-0.754c-0.463-0.269-0.888-0.516-1.273-0.739c-0.753-0.475-1.316-0.902-1.721-1.171
					c-0.404-0.271-0.6-0.441-0.6-0.441s0.155,0.209,0.488,0.56c0.34,0.343,0.787,0.916,1.469,1.527
					c0.35,0.299,0.736,0.63,1.158,0.991c0.424,0.363,0.946,0.663,1.475,1.036C119.176-60.182,120.483-59.5,121.992-58.938z"></path>
				<path fill="#305efc" class="fill-1" d="M126.157-54.044c0.751,0.289,1.566,0.498,2.405,0.744c0.857,0.145,1.741,0.382,2.672,0.427
					c1.853,0.238,3.845,0.127,5.865-0.205c2.02-0.357,4.061-1.028,5.994-2.006c0.472-0.266,0.946-0.533,1.421-0.8
					c0.474-0.271,0.93-0.63,1.395-0.946l0.694-0.493l0.586-0.501l0.586-0.502l0.293-0.251l0.201-0.176l0.139-0.134
					c1.415-1.327,2.908-2.515,4.585-3.402c1.677-0.851,3.399-1.596,5.173-1.983c1.766-0.354,3.521-0.637,5.2-0.558
					c0.844-0.042,1.647,0.13,2.444,0.165c0.779,0.135,1.549,0.235,2.266,0.418c1.435,0.368,2.739,0.809,3.852,1.314
					c0.546,0.27,1.084,0.495,1.543,0.753c0.46,0.267,0.883,0.512,1.265,0.733c0.756,0.478,1.33,0.914,1.732,1.182
					c0.403,0.271,0.597,0.44,0.597,0.44s-0.156-0.21-0.491-0.562c-0.343-0.344-0.78-0.908-1.458-1.516
					c-0.352-0.301-0.741-0.634-1.165-0.996c-0.428-0.366-0.947-0.664-1.477-1.038c-1.081-0.706-2.387-1.388-3.896-1.95
					c-0.751-0.289-1.566-0.497-2.404-0.743c-0.429-0.081-0.865-0.163-1.308-0.247c-0.443-0.095-0.898-0.151-1.363-0.18
					c-1.852-0.236-3.844-0.129-5.864,0.204c-2.02,0.356-4.059,1.031-5.994,2.004c-1.932,0.978-3.711,2.338-5.315,3.802l-0.128,0.123
					l-0.028,0.025l-0.072,0.064l-0.289,0.256l-0.577,0.512l-0.576,0.51l-0.56,0.4c-0.381,0.26-0.722,0.553-1.13,0.793l-1.225,0.717
					c-1.679,0.846-3.399,1.595-5.173,1.981c-1.766,0.354-3.521,0.634-5.199,0.557c-0.843,0.042-1.647-0.128-2.443-0.165
					c-0.779-0.135-1.548-0.234-2.265-0.417c-1.435-0.367-2.739-0.809-3.852-1.313c-0.547-0.27-1.082-0.493-1.546-0.754
					c-0.463-0.269-0.888-0.516-1.272-0.739c-0.753-0.475-1.316-0.902-1.721-1.171c-0.404-0.271-0.6-0.441-0.6-0.441
					s0.155,0.209,0.488,0.561c0.34,0.343,0.787,0.916,1.469,1.527c0.349,0.299,0.736,0.63,1.157,0.991
					c0.424,0.363,0.946,0.663,1.475,1.037C123.341-55.289,124.648-54.607,126.157-54.044z"></path>
				<path fill="#305efc" class="fill-1" d="M130.322-49.151c0.751,0.289,1.566,0.498,2.405,0.744c0.857,0.145,1.741,0.382,2.672,0.427
					c1.853,0.238,3.845,0.127,5.865-0.205c2.02-0.357,4.061-1.028,5.994-2.006c0.472-0.266,0.946-0.533,1.421-0.8
					c0.474-0.271,0.93-0.63,1.395-0.946l0.694-0.493l0.586-0.501l0.586-0.502l0.293-0.251l0.201-0.176l0.139-0.134
					c1.415-1.327,2.908-2.515,4.585-3.402c1.677-0.851,3.399-1.596,5.173-1.983c1.766-0.354,3.522-0.637,5.2-0.558
					c0.844-0.042,1.647,0.13,2.444,0.165c0.779,0.135,1.548,0.235,2.266,0.418c1.435,0.368,2.739,0.809,3.852,1.314
					c0.546,0.27,1.084,0.495,1.543,0.753c0.46,0.267,0.883,0.512,1.265,0.733c0.756,0.478,1.33,0.914,1.732,1.182
					c0.403,0.271,0.597,0.44,0.597,0.44s-0.157-0.21-0.491-0.562c-0.343-0.344-0.78-0.908-1.458-1.516
					c-0.352-0.301-0.741-0.634-1.165-0.996c-0.428-0.366-0.947-0.664-1.477-1.038c-1.081-0.706-2.387-1.388-3.896-1.95
					c-0.751-0.288-1.566-0.497-2.404-0.743c-0.429-0.081-0.865-0.163-1.308-0.247c-0.443-0.095-0.898-0.151-1.363-0.18
					c-1.852-0.236-3.844-0.129-5.864,0.204c-2.02,0.356-4.059,1.031-5.994,2.004c-1.932,0.978-3.711,2.337-5.315,3.802l-0.128,0.123
					l-0.029,0.025l-0.072,0.064l-0.289,0.256l-0.577,0.512l-0.576,0.51l-0.56,0.4c-0.381,0.26-0.722,0.553-1.13,0.793l-1.224,0.717
					c-1.679,0.846-3.399,1.595-5.173,1.981c-1.766,0.354-3.521,0.634-5.199,0.557c-0.843,0.042-1.647-0.128-2.443-0.165
					c-0.779-0.135-1.548-0.234-2.266-0.417c-1.434-0.367-2.738-0.809-3.852-1.313c-0.547-0.27-1.082-0.493-1.546-0.754
					c-0.463-0.269-0.888-0.516-1.273-0.739c-0.753-0.475-1.316-0.902-1.721-1.171c-0.404-0.271-0.6-0.441-0.6-0.441
					s0.155,0.209,0.488,0.56c0.34,0.343,0.788,0.916,1.47,1.527c0.349,0.299,0.736,0.63,1.157,0.991
					c0.424,0.363,0.946,0.663,1.475,1.037C127.506-50.395,128.813-49.713,130.322-49.151z"></path>
			</g>
		</g>
		<g>
			<g>
				<path fill="#305efc" class="fill-1" d="M58.992-58.938c0.751,0.289,1.566,0.498,2.405,0.744c0.857,0.145,1.741,0.382,2.672,0.427
					c1.853,0.238,3.845,0.127,5.865-0.205c2.02-0.357,4.061-1.028,5.994-2.006c0.472-0.266,0.946-0.533,1.421-0.8
					c0.474-0.271,0.929-0.63,1.395-0.946l0.694-0.493l0.586-0.501l0.586-0.502l0.293-0.251l0.201-0.176l0.139-0.134
					c1.415-1.327,2.908-2.515,4.585-3.402c1.677-0.851,3.399-1.596,5.173-1.983c1.766-0.354,3.521-0.637,5.2-0.558
					c0.844-0.042,1.647,0.13,2.444,0.165c0.779,0.135,1.549,0.234,2.266,0.418c1.435,0.368,2.739,0.809,3.852,1.314
					c0.546,0.27,1.084,0.495,1.543,0.753c0.46,0.267,0.883,0.512,1.265,0.733c0.756,0.478,1.33,0.914,1.732,1.182
					c0.403,0.271,0.597,0.44,0.597,0.44s-0.157-0.21-0.491-0.562c-0.343-0.344-0.78-0.908-1.458-1.516
					c-0.352-0.301-0.741-0.634-1.165-0.996c-0.428-0.366-0.947-0.664-1.477-1.037c-1.081-0.706-2.387-1.388-3.896-1.95
					c-0.751-0.288-1.566-0.497-2.404-0.743c-0.429-0.081-0.865-0.163-1.308-0.247c-0.443-0.095-0.898-0.151-1.363-0.18
					c-1.852-0.236-3.844-0.129-5.864,0.204c-2.02,0.356-4.059,1.031-5.994,2.004c-1.932,0.978-3.711,2.337-5.315,3.802l-0.129,0.123
					l-0.028,0.025l-0.072,0.064l-0.289,0.256l-0.577,0.512l-0.576,0.51l-0.56,0.4c-0.381,0.261-0.722,0.553-1.131,0.793
					l-1.224,0.717c-1.679,0.846-3.399,1.595-5.173,1.981c-1.766,0.354-3.521,0.634-5.199,0.557
					c-0.843,0.042-1.647-0.129-2.443-0.165c-0.779-0.135-1.548-0.234-2.265-0.417c-1.435-0.367-2.738-0.809-3.852-1.313
					c-0.547-0.27-1.082-0.493-1.546-0.754c-0.463-0.269-0.888-0.516-1.273-0.739c-0.753-0.475-1.316-0.902-1.721-1.171
					c-0.404-0.271-0.599-0.441-0.599-0.441s0.155,0.209,0.488,0.56c0.34,0.343,0.787,0.916,1.469,1.527
					c0.349,0.299,0.736,0.63,1.158,0.991c0.424,0.363,0.946,0.663,1.475,1.036C56.176-60.182,57.483-59.5,58.992-58.938z"></path>
				<path fill="#305efc" class="fill-1" d="M63.157-54.044c0.751,0.289,1.566,0.498,2.405,0.744c0.857,0.145,1.741,0.382,2.672,0.427
					c1.853,0.238,3.845,0.127,5.865-0.205c2.02-0.357,4.061-1.028,5.994-2.006c0.472-0.266,0.946-0.533,1.421-0.8
					c0.474-0.271,0.93-0.63,1.395-0.946l0.694-0.493l0.586-0.501l0.586-0.502l0.293-0.251l0.201-0.176l0.139-0.134
					c1.415-1.327,2.908-2.515,4.585-3.402c1.677-0.851,3.399-1.596,5.173-1.983c1.766-0.354,3.521-0.637,5.2-0.558
					c0.844-0.042,1.647,0.13,2.444,0.165c0.779,0.135,1.549,0.235,2.266,0.418c1.435,0.368,2.739,0.809,3.853,1.314
					c0.546,0.27,1.084,0.495,1.543,0.753c0.46,0.267,0.883,0.512,1.265,0.733c0.756,0.478,1.33,0.914,1.732,1.182
					c0.403,0.271,0.597,0.44,0.597,0.44s-0.157-0.21-0.491-0.562c-0.343-0.344-0.78-0.908-1.458-1.516
					c-0.352-0.301-0.741-0.634-1.165-0.996c-0.428-0.366-0.947-0.664-1.477-1.038c-1.081-0.706-2.387-1.388-3.896-1.95
					c-0.751-0.289-1.566-0.497-2.404-0.743c-0.429-0.081-0.865-0.163-1.308-0.247c-0.443-0.095-0.898-0.151-1.363-0.18
					c-1.852-0.236-3.844-0.129-5.864,0.204c-2.02,0.356-4.059,1.031-5.994,2.004c-1.933,0.978-3.711,2.338-5.315,3.802l-0.128,0.123
					L83.171-60.9l-0.072,0.064L82.81-60.58l-0.577,0.512l-0.576,0.51l-0.56,0.4c-0.381,0.26-0.722,0.553-1.13,0.793l-1.225,0.717
					c-1.679,0.846-3.399,1.595-5.173,1.981c-1.766,0.354-3.521,0.634-5.199,0.557c-0.843,0.042-1.647-0.128-2.443-0.165
					c-0.779-0.135-1.548-0.234-2.265-0.417c-1.435-0.367-2.739-0.809-3.852-1.313c-0.547-0.27-1.082-0.493-1.546-0.754
					c-0.463-0.269-0.888-0.516-1.273-0.739c-0.753-0.475-1.316-0.902-1.721-1.171c-0.404-0.271-0.599-0.441-0.599-0.441
					s0.155,0.209,0.488,0.561c0.34,0.343,0.787,0.916,1.47,1.527c0.349,0.299,0.736,0.63,1.157,0.991
					c0.424,0.363,0.946,0.663,1.475,1.037C60.341-55.289,61.648-54.607,63.157-54.044z"></path>
				<path fill="#305efc" class="fill-1" d="M67.322-49.151c0.751,0.289,1.566,0.498,2.405,0.744c0.857,0.145,1.741,0.382,2.672,0.427
					c1.853,0.238,3.845,0.127,5.865-0.205c2.02-0.357,4.061-1.028,5.994-2.006c0.472-0.266,0.946-0.533,1.421-0.8
					c0.474-0.271,0.93-0.63,1.395-0.946l0.694-0.493l0.586-0.501l0.586-0.502l0.293-0.251l0.201-0.176l0.139-0.134
					c1.415-1.327,2.908-2.515,4.585-3.402c1.677-0.851,3.399-1.596,5.173-1.983c1.766-0.354,3.521-0.637,5.2-0.558
					c0.844-0.042,1.647,0.13,2.444,0.165c0.779,0.135,1.549,0.235,2.266,0.418c1.435,0.368,2.739,0.809,3.853,1.314
					c0.546,0.27,1.084,0.495,1.543,0.753c0.46,0.267,0.883,0.512,1.265,0.733c0.756,0.478,1.33,0.914,1.732,1.182
					c0.403,0.271,0.597,0.44,0.597,0.44s-0.156-0.21-0.491-0.562c-0.343-0.344-0.78-0.908-1.458-1.516
					c-0.352-0.301-0.741-0.634-1.165-0.996c-0.428-0.366-0.947-0.664-1.477-1.038c-1.081-0.706-2.387-1.388-3.896-1.95
					c-0.751-0.288-1.566-0.497-2.404-0.743c-0.429-0.081-0.865-0.163-1.308-0.247c-0.443-0.095-0.898-0.151-1.363-0.18
					c-1.852-0.236-3.844-0.129-5.864,0.204c-2.02,0.356-4.059,1.031-5.994,2.004c-1.933,0.978-3.711,2.337-5.315,3.802l-0.128,0.123
					l-0.029,0.025l-0.072,0.064l-0.289,0.256l-0.577,0.512l-0.576,0.51l-0.56,0.4c-0.381,0.26-0.722,0.553-1.13,0.793l-1.224,0.717
					c-1.679,0.846-3.399,1.595-5.173,1.981c-1.766,0.354-3.521,0.634-5.199,0.557c-0.843,0.042-1.647-0.128-2.443-0.165
					c-0.779-0.135-1.548-0.234-2.266-0.417c-1.435-0.367-2.739-0.809-3.852-1.313c-0.547-0.27-1.082-0.493-1.546-0.754
					c-0.463-0.269-0.888-0.516-1.273-0.739c-0.753-0.475-1.316-0.902-1.721-1.171c-0.404-0.271-0.599-0.441-0.599-0.441
					s0.155,0.209,0.488,0.56c0.34,0.343,0.787,0.916,1.469,1.527c0.349,0.299,0.736,0.63,1.157,0.991
					c0.424,0.363,0.946,0.663,1.475,1.037C64.506-50.395,65.813-49.713,67.322-49.151z"></path>
				<path fill="#305efc" class="fill-1" d="M71.487-44.258c0.751,0.289,1.566,0.498,2.405,0.744c0.857,0.145,1.741,0.382,2.672,0.427
					c1.853,0.238,3.845,0.127,5.865-0.205c2.02-0.357,4.061-1.028,5.994-2.006c0.472-0.266,0.946-0.533,1.421-0.8
					c0.474-0.271,0.93-0.63,1.395-0.946l0.694-0.493l0.586-0.501l0.586-0.502l0.293-0.251l0.201-0.176l0.139-0.134
					c1.415-1.327,2.908-2.515,4.585-3.402c1.677-0.851,3.399-1.596,5.173-1.983c1.766-0.354,3.521-0.637,5.2-0.558
					c0.844-0.042,1.647,0.13,2.444,0.165c0.779,0.135,1.549,0.235,2.266,0.418c1.435,0.368,2.739,0.809,3.853,1.314
					c0.546,0.27,1.084,0.495,1.543,0.753c0.46,0.267,0.883,0.512,1.265,0.733c0.756,0.478,1.33,0.914,1.732,1.182
					c0.403,0.271,0.597,0.44,0.597,0.44s-0.157-0.21-0.491-0.562c-0.343-0.344-0.78-0.908-1.458-1.516
					c-0.352-0.301-0.741-0.634-1.165-0.996c-0.428-0.366-0.947-0.664-1.477-1.038c-1.081-0.706-2.387-1.388-3.896-1.95
					c-0.751-0.288-1.566-0.497-2.404-0.743c-0.429-0.081-0.865-0.163-1.308-0.247c-0.443-0.095-0.898-0.151-1.363-0.18
					c-1.852-0.236-3.844-0.129-5.864,0.204c-2.02,0.356-4.059,1.031-5.994,2.004c-1.933,0.978-3.711,2.338-5.315,3.802l-0.128,0.123
					L91.5-51.113l-0.072,0.064l-0.289,0.256l-0.577,0.512l-0.576,0.51l-0.56,0.4c-0.381,0.26-0.722,0.553-1.13,0.793l-1.224,0.717
					c-1.679,0.846-3.399,1.595-5.173,1.981c-1.766,0.354-3.521,0.634-5.199,0.557c-0.843,0.042-1.647-0.128-2.443-0.166
					c-0.779-0.135-1.548-0.234-2.265-0.417c-1.435-0.367-2.739-0.809-3.852-1.313c-0.547-0.27-1.082-0.493-1.546-0.754
					c-0.463-0.269-0.888-0.516-1.272-0.739c-0.753-0.475-1.316-0.902-1.721-1.171c-0.404-0.271-0.6-0.441-0.6-0.441
					s0.155,0.209,0.488,0.56c0.34,0.343,0.787,0.916,1.469,1.527c0.349,0.299,0.736,0.63,1.158,0.991
					c0.424,0.363,0.946,0.663,1.475,1.037C68.671-45.502,69.978-44.82,71.487-44.258z"></path>
				<path fill="#305efc" class="fill-1" d="M75.651-39.365c0.751,0.289,1.566,0.498,2.405,0.744c0.857,0.145,1.741,0.382,2.672,0.427
					c1.853,0.238,3.845,0.127,5.865-0.205c2.02-0.357,4.061-1.028,5.994-2.006c0.472-0.266,0.946-0.533,1.421-0.8
					c0.474-0.271,0.93-0.63,1.395-0.946l0.694-0.493l0.586-0.501l0.586-0.502l0.293-0.251l0.201-0.176l0.139-0.134
					c1.415-1.327,2.908-2.515,4.585-3.402c1.677-0.851,3.399-1.596,5.173-1.983c1.766-0.354,3.521-0.637,5.2-0.558
					c0.844-0.042,1.647,0.13,2.444,0.165c0.779,0.135,1.549,0.235,2.266,0.418c1.435,0.368,2.739,0.809,3.853,1.314
					c0.546,0.27,1.084,0.495,1.543,0.753c0.46,0.267,0.883,0.512,1.265,0.733c0.756,0.478,1.33,0.914,1.732,1.182
					c0.403,0.271,0.597,0.44,0.597,0.44s-0.157-0.21-0.491-0.562c-0.343-0.344-0.78-0.908-1.458-1.516
					c-0.352-0.301-0.741-0.634-1.165-0.996c-0.428-0.366-0.947-0.664-1.477-1.037c-1.081-0.706-2.387-1.389-3.896-1.95
					c-0.751-0.288-1.566-0.497-2.404-0.743c-0.429-0.081-0.865-0.163-1.308-0.247c-0.443-0.095-0.898-0.151-1.363-0.18
					c-1.853-0.236-3.844-0.129-5.864,0.204c-2.02,0.356-4.059,1.031-5.994,2.004c-1.932,0.978-3.711,2.337-5.315,3.802l-0.128,0.123
					l-0.029,0.025l-0.072,0.064L95.304-45.9l-0.577,0.512l-0.576,0.51l-0.56,0.4c-0.381,0.26-0.722,0.553-1.131,0.793l-1.224,0.718
					c-1.679,0.846-3.399,1.595-5.173,1.981c-1.766,0.354-3.521,0.634-5.199,0.557c-0.843,0.042-1.647-0.128-2.443-0.165
					c-0.779-0.135-1.548-0.234-2.265-0.417c-1.435-0.367-2.739-0.809-3.852-1.313c-0.547-0.27-1.082-0.493-1.546-0.754
					c-0.463-0.269-0.888-0.516-1.272-0.739c-0.753-0.475-1.316-0.902-1.721-1.171c-0.404-0.271-0.6-0.441-0.6-0.441
					s0.155,0.209,0.488,0.56c0.34,0.343,0.787,0.916,1.469,1.527c0.349,0.299,0.736,0.63,1.157,0.991
					c0.424,0.364,0.946,0.663,1.475,1.037C72.836-40.609,74.143-39.927,75.651-39.365z"></path>
				<path fill="#305efc" class="fill-1" d="M130.231-40.814c-0.343-0.344-0.78-0.908-1.458-1.516c-0.352-0.301-0.741-0.634-1.165-0.996
					c-0.428-0.366-0.947-0.664-1.477-1.037c-1.081-0.706-2.387-1.389-3.896-1.95c-0.751-0.288-1.566-0.497-2.405-0.743
					c-0.429-0.081-0.865-0.163-1.308-0.247c-0.443-0.095-0.898-0.151-1.363-0.18c-1.853-0.236-3.844-0.129-5.864,0.204
					c-2.02,0.356-4.059,1.031-5.994,2.004c-1.933,0.978-3.711,2.337-5.315,3.802l-0.128,0.123l-0.028,0.025l-0.072,0.064
					l-0.289,0.256l-0.577,0.512l-0.576,0.51l-0.56,0.4c-0.381,0.261-0.722,0.553-1.131,0.793l-1.224,0.717
					c-1.679,0.846-3.399,1.595-5.173,1.981c-1.766,0.354-3.521,0.634-5.199,0.557c-0.843,0.042-1.647-0.128-2.443-0.165
					c-0.779-0.135-1.548-0.234-2.265-0.417c-1.435-0.367-2.739-0.809-3.852-1.313c-0.547-0.27-1.082-0.493-1.546-0.754
					c-0.463-0.269-0.888-0.516-1.273-0.739c-0.753-0.475-1.316-0.902-1.721-1.172c-0.404-0.271-0.599-0.441-0.599-0.441
					s0.155,0.209,0.488,0.56c0.34,0.343,0.787,0.916,1.469,1.527c0.349,0.299,0.736,0.63,1.158,0.991
					c0.424,0.363,0.946,0.663,1.475,1.036c1.081,0.707,2.387,1.389,3.896,1.951c0.751,0.289,1.566,0.498,2.405,0.744
					c0.857,0.145,1.741,0.382,2.672,0.427c1.853,0.238,3.845,0.127,5.865-0.205c2.02-0.357,4.061-1.028,5.994-2.006
					c0.472-0.266,0.946-0.533,1.421-0.8c0.474-0.271,0.929-0.63,1.395-0.946l0.694-0.493l0.586-0.501l0.586-0.502l0.293-0.251
					l0.201-0.176l0.139-0.134c1.415-1.327,2.908-2.515,4.585-3.402c1.677-0.851,3.399-1.596,5.173-1.983
					c1.766-0.354,3.521-0.637,5.2-0.558c0.844-0.042,1.648,0.13,2.444,0.165c0.779,0.135,1.548,0.235,2.266,0.418
					c1.435,0.368,2.739,0.809,3.853,1.314c0.546,0.27,1.084,0.495,1.543,0.753c0.46,0.267,0.883,0.512,1.265,0.733
					c0.756,0.478,1.33,0.914,1.732,1.182c0.403,0.271,0.597,0.44,0.597,0.44S130.566-40.463,130.231-40.814z"></path>
			</g>
			<g>
				<path fill="#305efc" class="fill-1" d="M154.014-25.764c-0.751,0.289-1.566,0.498-2.405,0.744c-0.857,0.145-1.741,0.382-2.672,0.427
					c-1.853,0.238-3.845,0.127-5.865-0.205c-2.02-0.357-4.061-1.028-5.994-2.006c-0.472-0.266-0.946-0.533-1.421-0.8
					c-0.474-0.271-0.93-0.63-1.395-0.946l-0.694-0.493l-0.586-0.501l-0.586-0.502l-0.293-0.251l-0.201-0.176l-0.139-0.134
					c-1.415-1.327-2.908-2.515-4.585-3.402c-1.677-0.851-3.399-1.596-5.173-1.983c-1.766-0.354-3.522-0.637-5.2-0.558
					c-0.844-0.042-1.647,0.13-2.444,0.165c-0.779,0.135-1.548,0.235-2.266,0.418c-1.435,0.368-2.739,0.809-3.852,1.314
					c-0.546,0.27-1.084,0.495-1.543,0.753c-0.46,0.267-0.883,0.512-1.265,0.733c-0.756,0.478-1.33,0.914-1.732,1.182
					c-0.403,0.271-0.597,0.44-0.597,0.44s0.157-0.21,0.491-0.562c0.343-0.344,0.78-0.908,1.458-1.516
					c0.352-0.301,0.741-0.634,1.165-0.996c0.428-0.366,0.947-0.664,1.477-1.037c1.081-0.706,2.387-1.389,3.896-1.95
					c0.751-0.288,1.566-0.497,2.404-0.743c0.429-0.081,0.865-0.163,1.308-0.247c0.443-0.095,0.898-0.151,1.363-0.18
					c1.852-0.236,3.844-0.129,5.864,0.204c2.02,0.356,4.059,1.031,5.994,2.004c1.932,0.978,3.711,2.337,5.315,3.802l0.129,0.123
					L134-32.62l0.072,0.064l0.289,0.256l0.577,0.512l0.576,0.51l0.56,0.4c0.381,0.26,0.722,0.553,1.13,0.793l1.224,0.718
					c1.679,0.846,3.399,1.595,5.173,1.981c1.766,0.354,3.521,0.634,5.199,0.557c0.843,0.042,1.647-0.128,2.443-0.165
					c0.779-0.135,1.548-0.234,2.266-0.417c1.435-0.367,2.738-0.809,3.852-1.313c0.547-0.27,1.082-0.493,1.546-0.754
					c0.463-0.269,0.888-0.516,1.273-0.739c0.753-0.475,1.316-0.902,1.721-1.171c0.404-0.272,0.6-0.441,0.6-0.441
					s-0.155,0.209-0.488,0.56c-0.34,0.343-0.787,0.916-1.469,1.527c-0.35,0.299-0.736,0.63-1.158,0.991
					c-0.424,0.363-0.946,0.663-1.475,1.036C156.83-27.009,155.523-26.327,154.014-25.764z"></path>
				<path fill="#305efc" class="fill-1" d="M149.849-20.871c-0.751,0.289-1.566,0.498-2.405,0.744c-0.857,0.145-1.741,0.382-2.672,0.427
					c-1.853,0.238-3.845,0.127-5.865-0.205c-2.02-0.357-4.061-1.028-5.994-2.006c-0.472-0.266-0.946-0.533-1.421-0.8
					c-0.475-0.271-0.93-0.63-1.395-0.946l-0.694-0.493l-0.586-0.501l-0.586-0.502l-0.293-0.251l-0.201-0.176l-0.139-0.134
					c-1.415-1.327-2.908-2.515-4.585-3.402c-1.677-0.851-3.399-1.596-5.173-1.983c-1.766-0.354-3.521-0.637-5.2-0.558
					c-0.843-0.042-1.647,0.13-2.444,0.165c-0.779,0.135-1.549,0.234-2.266,0.418c-1.435,0.368-2.739,0.809-3.853,1.314
					c-0.546,0.27-1.084,0.495-1.543,0.753c-0.46,0.267-0.883,0.512-1.265,0.733c-0.756,0.478-1.33,0.914-1.732,1.182
					c-0.403,0.271-0.597,0.44-0.597,0.44s0.156-0.211,0.491-0.562c0.343-0.344,0.78-0.908,1.458-1.516
					c0.352-0.301,0.741-0.634,1.165-0.996c0.428-0.366,0.947-0.664,1.477-1.038c1.081-0.706,2.387-1.388,3.896-1.95
					c0.751-0.288,1.566-0.497,2.404-0.743c0.429-0.081,0.865-0.163,1.308-0.247c0.443-0.095,0.898-0.151,1.363-0.18
					c1.852-0.236,3.844-0.129,5.864,0.204c2.02,0.356,4.059,1.031,5.994,2.004c1.933,0.978,3.711,2.337,5.315,3.802l0.128,0.123
					l0.028,0.025l0.072,0.064l0.289,0.256l0.577,0.512l0.577,0.51l0.56,0.4c0.381,0.26,0.722,0.553,1.13,0.793l1.225,0.717
					c1.679,0.846,3.399,1.595,5.173,1.981c1.766,0.354,3.521,0.634,5.199,0.557c0.843,0.042,1.647-0.128,2.443-0.165
					c0.779-0.135,1.548-0.234,2.265-0.417c1.435-0.367,2.738-0.809,3.852-1.313c0.547-0.269,1.082-0.493,1.546-0.754
					c0.463-0.269,0.888-0.516,1.273-0.739c0.753-0.475,1.316-0.902,1.721-1.171c0.404-0.271,0.6-0.441,0.6-0.441
					s-0.155,0.209-0.488,0.56c-0.34,0.343-0.787,0.916-1.469,1.527c-0.35,0.299-0.736,0.63-1.158,0.991
					c-0.424,0.363-0.946,0.663-1.475,1.037C152.665-22.115,151.358-21.434,149.849-20.871z"></path>
				<path fill="#305efc" class="fill-1" d="M145.684-15.978c-0.751,0.289-1.566,0.498-2.405,0.744c-0.857,0.145-1.741,0.382-2.672,0.427
					c-1.853,0.238-3.845,0.127-5.865-0.205c-2.02-0.357-4.061-1.028-5.994-2.006c-0.472-0.266-0.946-0.533-1.421-0.8
					c-0.475-0.271-0.93-0.63-1.395-0.946l-0.694-0.493l-0.586-0.501l-0.586-0.502l-0.293-0.251l-0.201-0.176l-0.139-0.134
					c-1.415-1.327-2.908-2.515-4.585-3.402c-1.677-0.851-3.399-1.596-5.173-1.983c-1.766-0.354-3.521-0.637-5.2-0.558
					c-0.844-0.042-1.647,0.13-2.444,0.165c-0.779,0.135-1.549,0.234-2.266,0.418c-1.435,0.368-2.739,0.809-3.853,1.314
					c-0.545,0.269-1.084,0.495-1.543,0.753c-0.46,0.267-0.883,0.512-1.265,0.733c-0.756,0.478-1.33,0.914-1.732,1.182
					c-0.403,0.271-0.597,0.44-0.597,0.44s0.157-0.21,0.491-0.562c0.343-0.344,0.78-0.908,1.458-1.516
					c0.352-0.301,0.741-0.634,1.165-0.996c0.428-0.366,0.947-0.664,1.477-1.037c1.081-0.706,2.387-1.389,3.896-1.95
					c0.751-0.288,1.566-0.497,2.404-0.743c0.429-0.081,0.865-0.163,1.308-0.247c0.443-0.095,0.898-0.151,1.363-0.18
					c1.852-0.236,3.844-0.129,5.864,0.204c2.02,0.356,4.059,1.031,5.994,2.004c1.933,0.978,3.711,2.337,5.315,3.802l0.128,0.123
					l0.029,0.026l0.072,0.064l0.289,0.256l0.577,0.512l0.576,0.51l0.56,0.4c0.381,0.26,0.722,0.553,1.13,0.793l1.224,0.718
					c1.679,0.846,3.399,1.595,5.173,1.981c1.766,0.354,3.521,0.634,5.199,0.557c0.843,0.042,1.647-0.128,2.443-0.165
					c0.779-0.135,1.548-0.234,2.266-0.417c1.435-0.367,2.739-0.809,3.852-1.313c0.547-0.27,1.082-0.493,1.546-0.754
					c0.463-0.269,0.888-0.516,1.273-0.739c0.753-0.475,1.316-0.902,1.721-1.171c0.404-0.271,0.6-0.441,0.6-0.441
					s-0.155,0.209-0.488,0.561c-0.34,0.343-0.788,0.916-1.47,1.527c-0.349,0.299-0.736,0.63-1.157,0.991
					c-0.424,0.363-0.946,0.663-1.475,1.037C148.5-17.222,147.193-16.54,145.684-15.978z"></path>
				<path fill="#305efc" class="fill-1" d="M141.52-11.085c-0.751,0.289-1.566,0.498-2.405,0.744c-0.857,0.145-1.741,0.382-2.672,0.427
					c-1.853,0.238-3.845,0.127-5.865-0.205c-2.02-0.357-4.061-1.028-5.994-2.006c-0.472-0.266-0.946-0.533-1.421-0.8
					c-0.474-0.271-0.929-0.63-1.395-0.946l-0.694-0.493l-0.586-0.501l-0.586-0.502l-0.293-0.251l-0.201-0.176l-0.139-0.134
					c-1.415-1.327-2.908-2.515-4.585-3.402c-1.677-0.851-3.399-1.596-5.173-1.983c-1.766-0.354-3.521-0.637-5.2-0.558
					c-0.844-0.042-1.647,0.13-2.444,0.165c-0.779,0.135-1.549,0.234-2.266,0.418c-1.435,0.368-2.739,0.809-3.853,1.314
					c-0.546,0.27-1.084,0.495-1.543,0.753c-0.46,0.267-0.883,0.512-1.265,0.733c-0.756,0.478-1.33,0.914-1.732,1.182
					c-0.403,0.271-0.597,0.44-0.597,0.44s0.157-0.21,0.491-0.562c0.343-0.344,0.78-0.908,1.458-1.516
					c0.352-0.301,0.741-0.634,1.165-0.996c0.428-0.366,0.947-0.664,1.477-1.037c1.081-0.706,2.387-1.389,3.896-1.95
					c0.751-0.288,1.566-0.497,2.404-0.743c0.429-0.081,0.865-0.163,1.308-0.247c0.443-0.095,0.898-0.151,1.363-0.18
					c1.852-0.236,3.844-0.129,5.864,0.204c2.02,0.356,4.059,1.031,5.994,2.004c1.933,0.978,3.711,2.337,5.315,3.802l0.128,0.123
					l0.028,0.025l0.072,0.064l0.289,0.256l0.577,0.512l0.576,0.51l0.56,0.4c0.381,0.26,0.722,0.553,1.13,0.793l1.224,0.717
					c1.679,0.846,3.399,1.595,5.173,1.981c1.766,0.354,3.521,0.634,5.199,0.557c0.843,0.042,1.647-0.128,2.443-0.165
					c0.779-0.135,1.548-0.234,2.266-0.417c1.435-0.367,2.738-0.809,3.852-1.313c0.547-0.27,1.082-0.493,1.546-0.754
					c0.463-0.269,0.888-0.516,1.273-0.739c0.753-0.475,1.316-0.902,1.721-1.171c0.404-0.271,0.6-0.441,0.6-0.441
					s-0.155,0.209-0.488,0.56c-0.34,0.343-0.787,0.916-1.469,1.527c-0.349,0.299-0.736,0.63-1.158,0.991
					c-0.424,0.363-0.946,0.663-1.475,1.036C144.335-12.329,143.029-11.647,141.52-11.085z"></path>
				<path fill="#305efc" class="fill-1" d="M137.355-6.191c-0.751,0.289-1.566,0.498-2.405,0.744c-0.857,0.145-1.741,0.382-2.672,0.427
					c-1.853,0.238-3.845,0.127-5.865-0.205c-2.02-0.357-4.061-1.028-5.994-2.006c-0.472-0.266-0.946-0.533-1.421-0.8
					c-0.474-0.271-0.929-0.63-1.395-0.946l-0.694-0.493l-0.586-0.501l-0.586-0.502l-0.293-0.251l-0.201-0.176l-0.139-0.134
					c-1.415-1.327-2.908-2.515-4.585-3.402c-1.677-0.851-3.399-1.596-5.173-1.983c-1.766-0.354-3.521-0.637-5.2-0.558
					c-0.844-0.042-1.647,0.13-2.444,0.165c-0.779,0.135-1.549,0.234-2.266,0.418c-1.435,0.368-2.739,0.809-3.853,1.314
					c-0.546,0.269-1.084,0.495-1.543,0.753c-0.46,0.267-0.883,0.512-1.265,0.733c-0.756,0.478-1.33,0.914-1.732,1.182
					c-0.403,0.271-0.597,0.44-0.597,0.44s0.156-0.21,0.491-0.562c0.343-0.344,0.78-0.908,1.458-1.516
					c0.352-0.301,0.741-0.634,1.165-0.996c0.428-0.366,0.947-0.664,1.477-1.037c1.081-0.706,2.387-1.389,3.896-1.95
					c0.751-0.288,1.566-0.497,2.404-0.743c0.429-0.081,0.865-0.163,1.308-0.247c0.443-0.095,0.898-0.151,1.363-0.18
					c1.853-0.236,3.844-0.129,5.864,0.204c2.02,0.356,4.059,1.031,5.994,2.004c1.932,0.978,3.711,2.337,5.315,3.802l0.128,0.123
					l0.029,0.025l0.072,0.064l0.289,0.256l0.577,0.512l0.576,0.51l0.56,0.4c0.381,0.26,0.722,0.553,1.131,0.793l1.224,0.718
					c1.679,0.846,3.399,1.595,5.173,1.981c1.766,0.354,3.521,0.634,5.199,0.557c0.843,0.042,1.647-0.128,2.443-0.165
					c0.779-0.135,1.548-0.234,2.265-0.417c1.435-0.367,2.739-0.809,3.852-1.313c0.547-0.27,1.082-0.493,1.546-0.754
					c0.463-0.269,0.888-0.516,1.272-0.739c0.753-0.475,1.316-0.902,1.721-1.171c0.404-0.272,0.6-0.441,0.6-0.441
					s-0.155,0.209-0.488,0.56c-0.34,0.343-0.787,0.916-1.469,1.527c-0.349,0.299-0.736,0.63-1.158,0.991
					c-0.424,0.363-0.946,0.663-1.475,1.036C140.171-7.436,138.864-6.754,137.355-6.191z"></path>
				<path fill="#305efc" class="fill-1" d="M82.775-7.641c0.343-0.344,0.78-0.908,1.458-1.516c0.352-0.301,0.741-0.634,1.165-0.996
					c0.428-0.366,0.947-0.664,1.477-1.037c1.081-0.706,2.387-1.389,3.896-1.95c0.751-0.288,1.566-0.497,2.405-0.743
					c0.429-0.081,0.865-0.163,1.308-0.247c0.443-0.095,0.898-0.151,1.363-0.18c1.853-0.236,3.844-0.129,5.864,0.204
					c2.02,0.356,4.059,1.031,5.994,2.004c1.933,0.978,3.711,2.337,5.315,3.802l0.128,0.123l0.028,0.025l0.072,0.064l0.289,0.256
					l0.577,0.512l0.576,0.51l0.56,0.4c0.381,0.26,0.722,0.553,1.131,0.793l1.224,0.717c1.679,0.846,3.399,1.595,5.173,1.981
					c1.766,0.354,3.521,0.634,5.199,0.557c0.843,0.042,1.647-0.128,2.443-0.165c0.779-0.135,1.548-0.234,2.265-0.417
					c1.435-0.367,2.739-0.809,3.852-1.313c0.547-0.27,1.082-0.493,1.546-0.754c0.463-0.269,0.888-0.516,1.273-0.739
					c0.753-0.475,1.316-0.902,1.721-1.171c0.404-0.271,0.599-0.441,0.599-0.441s-0.155,0.209-0.488,0.56
					c-0.34,0.343-0.787,0.916-1.469,1.527c-0.349,0.299-0.736,0.63-1.158,0.991c-0.424,0.363-0.946,0.663-1.475,1.037
					c-1.08,0.707-2.387,1.389-3.896,1.951c-0.751,0.289-1.566,0.498-2.405,0.744c-0.857,0.145-1.741,0.382-2.672,0.427
					c-1.853,0.238-3.845,0.127-5.865-0.205c-2.02-0.357-4.061-1.028-5.994-2.006c-0.472-0.266-0.946-0.533-1.421-0.8
					c-0.474-0.271-0.929-0.63-1.395-0.946l-0.694-0.493l-0.586-0.501l-0.586-0.502l-0.293-0.251l-0.201-0.176l-0.139-0.134
					c-1.415-1.327-2.908-2.515-4.585-3.402c-1.677-0.851-3.399-1.596-5.173-1.983c-1.766-0.354-3.521-0.637-5.2-0.558
					c-0.844-0.042-1.647,0.13-2.444,0.165c-0.779,0.135-1.548,0.234-2.266,0.418c-1.435,0.368-2.739,0.809-3.853,1.314
					c-0.546,0.27-1.084,0.495-1.543,0.753c-0.46,0.267-0.883,0.512-1.265,0.733c-0.756,0.478-1.33,0.914-1.732,1.182
					c-0.403,0.271-0.597,0.44-0.597,0.44S82.44-7.29,82.775-7.641z"></path>
			</g>
		</g>
		<g>
			<g>
				<path fill="#305efc" class="fill-1" d="M8.487-44.258c0.751,0.289,1.566,0.498,2.405,0.744c0.857,0.145,1.741,0.382,2.672,0.427
					c1.853,0.238,3.845,0.127,5.865-0.205c2.02-0.357,4.061-1.028,5.994-2.006c0.472-0.266,0.946-0.533,1.421-0.8
					c0.474-0.271,0.929-0.63,1.395-0.946l0.694-0.493l0.586-0.501l0.586-0.502l0.293-0.251l0.201-0.176l0.139-0.134
					c1.415-1.327,2.908-2.515,4.585-3.402c1.677-0.851,3.399-1.596,5.173-1.983c1.766-0.354,3.521-0.637,5.2-0.558
					c0.844-0.042,1.647,0.13,2.444,0.165c0.779,0.135,1.549,0.235,2.266,0.418c1.435,0.368,2.739,0.809,3.853,1.314
					c0.545,0.27,1.084,0.495,1.543,0.753c0.46,0.267,0.883,0.512,1.265,0.733c0.756,0.478,1.33,0.914,1.732,1.182
					c0.403,0.271,0.597,0.44,0.597,0.44s-0.156-0.21-0.491-0.562c-0.343-0.344-0.78-0.908-1.458-1.516
					c-0.352-0.301-0.741-0.634-1.165-0.996c-0.428-0.366-0.947-0.664-1.477-1.038c-1.081-0.706-2.387-1.388-3.896-1.95
					c-0.751-0.288-1.566-0.497-2.404-0.743c-0.429-0.081-0.865-0.163-1.308-0.247c-0.443-0.095-0.898-0.151-1.363-0.18
					c-1.852-0.236-3.844-0.129-5.864,0.204c-2.02,0.356-4.059,1.031-5.994,2.004c-1.932,0.978-3.711,2.338-5.315,3.802l-0.128,0.123
					L28.5-51.113l-0.072,0.064l-0.289,0.256l-0.577,0.512l-0.576,0.51l-0.56,0.4c-0.381,0.26-0.722,0.553-1.13,0.793l-1.224,0.717
					c-1.679,0.846-3.399,1.595-5.173,1.981c-1.766,0.354-3.521,0.634-5.199,0.557c-0.843,0.042-1.647-0.128-2.443-0.166
					c-0.779-0.135-1.548-0.234-2.265-0.417c-1.435-0.367-2.739-0.809-3.852-1.313c-0.547-0.27-1.082-0.493-1.546-0.754
					c-0.463-0.269-0.888-0.516-1.273-0.739c-0.753-0.475-1.316-0.902-1.721-1.171C0.196-50.154,0-50.323,0-50.323
					s0.155,0.209,0.488,0.56c0.34,0.343,0.787,0.916,1.469,1.527c0.349,0.299,0.736,0.63,1.157,0.991
					c0.424,0.363,0.946,0.663,1.475,1.037C5.671-45.502,6.978-44.82,8.487-44.258z"></path>
				<path fill="#305efc" class="fill-1" d="M12.651-39.365c0.751,0.289,1.566,0.498,2.405,0.744c0.857,0.145,1.741,0.382,2.671,0.427
					c1.853,0.238,3.845,0.127,5.865-0.205c2.02-0.357,4.061-1.028,5.994-2.006c0.472-0.266,0.946-0.533,1.421-0.8
					c0.474-0.271,0.93-0.63,1.395-0.946l0.694-0.493l0.586-0.501l0.586-0.502l0.293-0.251l0.201-0.176l0.139-0.134
					c1.415-1.327,2.908-2.515,4.585-3.402c1.677-0.851,3.399-1.596,5.173-1.983c1.766-0.354,3.521-0.637,5.2-0.558
					c0.844-0.042,1.647,0.13,2.444,0.165c0.779,0.135,1.549,0.235,2.266,0.418c1.435,0.368,2.739,0.809,3.852,1.314
					c0.546,0.27,1.084,0.495,1.543,0.753c0.46,0.267,0.883,0.512,1.265,0.733c0.756,0.478,1.33,0.914,1.732,1.182
					c0.403,0.271,0.597,0.44,0.597,0.44s-0.157-0.21-0.491-0.562c-0.343-0.344-0.78-0.908-1.458-1.516
					c-0.352-0.301-0.741-0.634-1.165-0.996c-0.428-0.366-0.947-0.664-1.477-1.037c-1.081-0.706-2.387-1.389-3.896-1.95
					c-0.751-0.288-1.566-0.497-2.404-0.743c-0.429-0.081-0.865-0.163-1.308-0.247c-0.443-0.095-0.898-0.151-1.363-0.18
					c-1.853-0.236-3.844-0.129-5.864,0.204c-2.02,0.356-4.059,1.031-5.994,2.004c-1.932,0.978-3.711,2.337-5.315,3.802l-0.128,0.123
					l-0.029,0.025l-0.072,0.064L32.304-45.9l-0.577,0.512l-0.576,0.51l-0.56,0.4c-0.381,0.26-0.722,0.553-1.13,0.793l-1.224,0.718
					c-1.679,0.846-3.399,1.595-5.173,1.981c-1.766,0.354-3.521,0.634-5.199,0.557c-0.843,0.042-1.647-0.128-2.443-0.165
					c-0.779-0.135-1.548-0.234-2.265-0.417c-1.435-0.367-2.739-0.809-3.852-1.313c-0.547-0.27-1.082-0.493-1.546-0.754
					c-0.463-0.269-0.888-0.516-1.273-0.739c-0.753-0.475-1.316-0.902-1.721-1.171C4.361-45.26,4.165-45.43,4.165-45.43
					s0.155,0.209,0.488,0.56c0.34,0.343,0.787,0.916,1.469,1.527c0.349,0.299,0.736,0.63,1.157,0.991
					c0.424,0.364,0.946,0.663,1.475,1.037C9.836-40.609,11.142-39.927,12.651-39.365z"></path>
				<path fill="#305efc" class="fill-1" d="M67.231-40.814c-0.343-0.344-0.78-0.908-1.458-1.516c-0.352-0.301-0.741-0.634-1.165-0.996
					c-0.428-0.366-0.947-0.664-1.477-1.037c-1.081-0.706-2.387-1.389-3.896-1.95c-0.751-0.288-1.566-0.497-2.404-0.743
					c-0.429-0.081-0.865-0.163-1.308-0.247c-0.443-0.095-0.898-0.151-1.363-0.18c-1.852-0.236-3.844-0.129-5.864,0.204
					c-2.02,0.356-4.059,1.031-5.994,2.004c-1.933,0.978-3.711,2.337-5.315,3.802l-0.128,0.123l-0.028,0.025l-0.072,0.064
					l-0.289,0.256l-0.577,0.512l-0.576,0.51l-0.56,0.4c-0.381,0.261-0.722,0.553-1.131,0.793l-1.224,0.717
					c-1.679,0.846-3.399,1.595-5.173,1.981c-1.766,0.354-3.521,0.634-5.199,0.557c-0.843,0.042-1.647-0.128-2.443-0.165
					c-0.779-0.135-1.548-0.234-2.265-0.417c-1.435-0.367-2.739-0.809-3.852-1.313c-0.547-0.27-1.082-0.493-1.546-0.754
					c-0.463-0.269-0.888-0.516-1.273-0.739c-0.753-0.475-1.316-0.902-1.721-1.172c-0.404-0.271-0.599-0.441-0.599-0.441
					s0.155,0.209,0.488,0.56c0.34,0.343,0.787,0.916,1.469,1.527c0.349,0.299,0.736,0.63,1.158,0.991
					c0.424,0.363,0.946,0.663,1.475,1.036c1.08,0.707,2.387,1.389,3.896,1.951c0.751,0.289,1.566,0.498,2.405,0.744
					c0.857,0.145,1.741,0.382,2.671,0.427c1.853,0.238,3.845,0.127,5.865-0.205c2.02-0.357,4.061-1.028,5.994-2.006
					c0.472-0.266,0.946-0.533,1.421-0.8c0.474-0.271,0.93-0.63,1.395-0.946l0.694-0.493l0.586-0.501l0.586-0.502l0.293-0.251
					l0.201-0.176l0.139-0.134c1.415-1.327,2.908-2.515,4.585-3.402c1.677-0.851,3.399-1.596,5.173-1.983
					c1.766-0.354,3.521-0.637,5.2-0.558c0.844-0.042,1.647,0.13,2.444,0.165c0.779,0.135,1.548,0.235,2.266,0.418
					c1.435,0.368,2.739,0.809,3.853,1.314c0.546,0.27,1.084,0.495,1.543,0.753c0.46,0.267,0.883,0.512,1.265,0.733
					c0.756,0.478,1.33,0.914,1.732,1.182c0.403,0.271,0.597,0.44,0.597,0.44S67.566-40.463,67.231-40.814z"></path>
			</g>
			<g>
				<path fill="#305efc" class="fill-1" d="M91.014-25.764c-0.751,0.289-1.566,0.498-2.405,0.744c-0.857,0.145-1.741,0.382-2.672,0.427
					c-1.853,0.238-3.845,0.127-5.865-0.205c-2.02-0.357-4.061-1.028-5.994-2.006c-0.472-0.266-0.946-0.533-1.421-0.8
					c-0.474-0.271-0.93-0.63-1.395-0.946l-0.694-0.493l-0.586-0.501l-0.586-0.502l-0.293-0.251l-0.201-0.176l-0.139-0.134
					c-1.415-1.327-2.908-2.515-4.585-3.402c-1.677-0.851-3.399-1.596-5.173-1.983c-1.766-0.354-3.521-0.637-5.2-0.558
					c-0.844-0.042-1.647,0.13-2.444,0.165c-0.779,0.135-1.549,0.235-2.266,0.418c-1.435,0.368-2.739,0.809-3.852,1.314
					c-0.546,0.27-1.084,0.495-1.543,0.753c-0.46,0.267-0.883,0.512-1.265,0.733c-0.756,0.478-1.33,0.914-1.732,1.182
					c-0.403,0.271-0.597,0.44-0.597,0.44s0.156-0.21,0.491-0.562c0.343-0.344,0.78-0.908,1.458-1.516
					c0.352-0.301,0.741-0.634,1.165-0.996c0.428-0.366,0.947-0.664,1.477-1.037c1.081-0.706,2.387-1.389,3.896-1.95
					c0.751-0.288,1.566-0.497,2.404-0.743c0.429-0.081,0.865-0.163,1.308-0.247c0.443-0.095,0.898-0.151,1.363-0.18
					c1.852-0.236,3.844-0.129,5.864,0.204c2.02,0.356,4.059,1.031,5.994,2.004c1.933,0.978,3.711,2.337,5.315,3.802l0.129,0.123
					L71-32.62l0.072,0.064l0.289,0.256l0.577,0.512l0.576,0.51l0.56,0.4c0.381,0.26,0.722,0.553,1.13,0.793l1.224,0.718
					c1.679,0.846,3.399,1.595,5.173,1.981c1.766,0.354,3.521,0.634,5.199,0.557c0.843,0.042,1.647-0.128,2.443-0.165
					c0.779-0.135,1.548-0.234,2.266-0.417c1.435-0.367,2.739-0.809,3.852-1.313c0.547-0.27,1.082-0.493,1.545-0.754
					c0.463-0.269,0.888-0.516,1.273-0.739c0.753-0.475,1.316-0.902,1.721-1.171c0.404-0.272,0.6-0.441,0.6-0.441
					s-0.155,0.209-0.488,0.56c-0.34,0.343-0.787,0.916-1.469,1.527c-0.35,0.299-0.736,0.63-1.158,0.991
					c-0.424,0.363-0.946,0.663-1.475,1.036C93.83-27.009,92.523-26.327,91.014-25.764z"></path>
				<path fill="#305efc" class="fill-1" d="M86.849-20.871c-0.751,0.289-1.566,0.498-2.405,0.744c-0.857,0.145-1.741,0.382-2.672,0.427
					c-1.853,0.238-3.845,0.127-5.865-0.205c-2.02-0.357-4.061-1.028-5.994-2.006c-0.472-0.266-0.946-0.533-1.421-0.8
					c-0.475-0.271-0.93-0.63-1.395-0.946l-0.694-0.493l-0.586-0.501l-0.586-0.502l-0.293-0.251l-0.2-0.176L64.6-25.714
					c-1.415-1.327-2.908-2.515-4.585-3.402c-1.677-0.851-3.399-1.596-5.173-1.983c-1.766-0.354-3.521-0.637-5.2-0.558
					c-0.844-0.042-1.647,0.13-2.444,0.165c-0.779,0.135-1.549,0.234-2.266,0.418c-1.435,0.368-2.739,0.809-3.853,1.314
					c-0.545,0.27-1.084,0.495-1.543,0.753c-0.46,0.267-0.883,0.512-1.265,0.733c-0.756,0.478-1.33,0.914-1.732,1.182
					c-0.403,0.271-0.597,0.44-0.597,0.44s0.157-0.211,0.491-0.562c0.343-0.344,0.78-0.908,1.458-1.516
					c0.352-0.301,0.741-0.634,1.165-0.996c0.428-0.366,0.947-0.664,1.477-1.038c1.081-0.706,2.387-1.388,3.896-1.95
					c0.751-0.288,1.566-0.497,2.404-0.743c0.429-0.081,0.865-0.163,1.308-0.247c0.443-0.095,0.898-0.151,1.363-0.18
					c1.852-0.236,3.844-0.129,5.864,0.204c2.02,0.356,4.059,1.031,5.994,2.004c1.932,0.978,3.711,2.337,5.315,3.802l0.128,0.123
					l0.028,0.025l0.072,0.064l0.289,0.256l0.577,0.512l0.576,0.51l0.56,0.4c0.381,0.26,0.722,0.553,1.13,0.793l1.225,0.717
					c1.679,0.846,3.399,1.595,5.173,1.981c1.766,0.354,3.521,0.634,5.199,0.557c0.843,0.042,1.647-0.128,2.443-0.165
					c0.779-0.135,1.548-0.234,2.265-0.417c1.435-0.367,2.739-0.809,3.852-1.313c0.547-0.269,1.082-0.493,1.546-0.754
					c0.463-0.269,0.888-0.516,1.272-0.739c0.753-0.475,1.316-0.902,1.721-1.171c0.404-0.271,0.6-0.441,0.6-0.441
					s-0.155,0.209-0.488,0.56c-0.34,0.343-0.787,0.916-1.469,1.527c-0.349,0.299-0.736,0.63-1.158,0.991
					c-0.424,0.363-0.946,0.663-1.475,1.037C89.665-22.115,88.358-21.434,86.849-20.871z"></path>
				<path fill="#305efc" class="fill-1" d="M82.684-15.978c-0.751,0.289-1.566,0.498-2.405,0.744c-0.857,0.145-1.741,0.382-2.672,0.427
					c-1.853,0.238-3.845,0.127-5.865-0.205c-2.02-0.357-4.061-1.028-5.994-2.006c-0.472-0.266-0.946-0.533-1.421-0.8
					c-0.474-0.271-0.93-0.63-1.395-0.946l-0.694-0.493l-0.586-0.501l-0.586-0.502l-0.293-0.251l-0.201-0.176l-0.139-0.134
					c-1.415-1.327-2.908-2.515-4.585-3.402c-1.677-0.851-3.399-1.596-5.173-1.983c-1.766-0.354-3.521-0.637-5.2-0.558
					c-0.844-0.042-1.647,0.13-2.444,0.165c-0.779,0.135-1.549,0.234-2.266,0.418c-1.435,0.368-2.739,0.809-3.853,1.314
					c-0.546,0.269-1.084,0.495-1.543,0.753c-0.46,0.267-0.883,0.512-1.265,0.733c-0.756,0.478-1.33,0.914-1.732,1.182
					c-0.403,0.271-0.597,0.44-0.597,0.44s0.156-0.21,0.491-0.562c0.343-0.344,0.78-0.908,1.458-1.516
					c0.352-0.301,0.741-0.634,1.165-0.996c0.428-0.366,0.947-0.664,1.477-1.037c1.081-0.706,2.387-1.389,3.896-1.95
					c0.751-0.288,1.566-0.497,2.404-0.743c0.429-0.081,0.865-0.163,1.308-0.247c0.443-0.095,0.898-0.151,1.363-0.18
					c1.852-0.236,3.844-0.129,5.864,0.204c2.02,0.356,4.059,1.031,5.994,2.004c1.933,0.978,3.711,2.337,5.315,3.802l0.128,0.123
					l0.029,0.026l0.072,0.064l0.289,0.256l0.577,0.512l0.576,0.51l0.56,0.4c0.381,0.26,0.722,0.553,1.13,0.793l1.224,0.718
					c1.679,0.846,3.399,1.595,5.173,1.981c1.766,0.354,3.521,0.634,5.199,0.557c0.843,0.042,1.647-0.128,2.443-0.165
					c0.779-0.135,1.548-0.234,2.265-0.417c1.435-0.367,2.739-0.809,3.852-1.313c0.547-0.27,1.082-0.493,1.546-0.754
					c0.463-0.269,0.888-0.516,1.273-0.739c0.753-0.475,1.316-0.902,1.721-1.171c0.404-0.271,0.599-0.441,0.599-0.441
					s-0.155,0.209-0.488,0.561c-0.34,0.343-0.787,0.916-1.47,1.527c-0.349,0.299-0.736,0.63-1.157,0.991
					c-0.424,0.363-0.946,0.663-1.475,1.037C85.5-17.222,84.193-16.54,82.684-15.978z"></path>
				<path fill="#305efc" class="fill-1" d="M78.52-11.085c-0.751,0.289-1.566,0.498-2.405,0.744c-0.857,0.145-1.741,0.382-2.672,0.427
					c-1.853,0.238-3.845,0.127-5.865-0.205c-2.02-0.357-4.061-1.028-5.994-2.006c-0.472-0.266-0.946-0.533-1.421-0.8
					c-0.474-0.271-0.93-0.63-1.395-0.946l-0.694-0.493l-0.586-0.501l-0.586-0.502l-0.293-0.251l-0.201-0.176l-0.139-0.134
					c-1.415-1.327-2.908-2.515-4.585-3.402c-1.677-0.851-3.399-1.596-5.173-1.983c-1.766-0.354-3.521-0.637-5.2-0.558
					c-0.844-0.042-1.647,0.13-2.444,0.165c-0.779,0.135-1.549,0.234-2.266,0.418c-1.435,0.368-2.739,0.809-3.853,1.314
					c-0.545,0.27-1.084,0.495-1.543,0.753c-0.46,0.267-0.883,0.512-1.265,0.733c-0.756,0.478-1.33,0.914-1.732,1.182
					c-0.403,0.271-0.597,0.44-0.597,0.44s0.156-0.21,0.491-0.562c0.343-0.344,0.78-0.908,1.458-1.516
					c0.352-0.301,0.741-0.634,1.165-0.996c0.428-0.366,0.947-0.664,1.477-1.037c1.081-0.706,2.387-1.389,3.896-1.95
					c0.751-0.288,1.566-0.497,2.404-0.743c0.429-0.081,0.865-0.163,1.308-0.247c0.443-0.095,0.898-0.151,1.363-0.18
					c1.852-0.236,3.844-0.129,5.864,0.204c2.02,0.356,4.059,1.031,5.994,2.004c1.932,0.978,3.711,2.337,5.315,3.802l0.128,0.123
					l0.028,0.025l0.072,0.064l0.289,0.256l0.577,0.512l0.576,0.51l0.56,0.4c0.381,0.26,0.722,0.553,1.13,0.793l1.224,0.717
					c1.679,0.846,3.399,1.595,5.173,1.981c1.766,0.354,3.521,0.634,5.199,0.557c0.843,0.042,1.647-0.128,2.443-0.165
					c0.779-0.135,1.548-0.234,2.266-0.417c1.435-0.367,2.738-0.809,3.852-1.313c0.547-0.27,1.082-0.493,1.546-0.754
					c0.463-0.269,0.888-0.516,1.273-0.739c0.753-0.475,1.316-0.902,1.721-1.171c0.404-0.271,0.599-0.441,0.599-0.441
					s-0.155,0.209-0.488,0.56c-0.34,0.343-0.787,0.916-1.469,1.527c-0.349,0.299-0.736,0.63-1.158,0.991
					c-0.424,0.363-0.946,0.663-1.475,1.036C81.335-12.329,80.029-11.647,78.52-11.085z"></path>
			</g>
		</g>
		<g>
			<g>
				<path fill="#305efc" class="fill-1" d="M149.849-85.871c-0.751,0.289-1.566,0.498-2.405,0.744c-0.857,0.145-1.741,0.382-2.672,0.427
					c-1.853,0.238-3.845,0.127-5.865-0.205c-2.02-0.357-4.061-1.028-5.994-2.006c-0.472-0.266-0.946-0.533-1.421-0.8
					c-0.475-0.271-0.93-0.63-1.395-0.946l-0.694-0.493l-0.586-0.501l-0.586-0.502l-0.293-0.251l-0.201-0.176l-0.139-0.134
					c-1.415-1.327-2.908-2.515-4.585-3.402c-1.677-0.851-3.399-1.596-5.173-1.983c-1.766-0.354-3.521-0.637-5.2-0.558
					c-0.843-0.042-1.647,0.13-2.444,0.165c-0.779,0.135-1.549,0.235-2.266,0.418c-1.435,0.368-2.739,0.809-3.853,1.314
					c-0.546,0.27-1.084,0.495-1.543,0.753c-0.46,0.267-0.883,0.512-1.265,0.733c-0.756,0.478-1.33,0.914-1.732,1.182
					c-0.403,0.271-0.597,0.44-0.597,0.44s0.156-0.211,0.491-0.562c0.343-0.344,0.78-0.908,1.458-1.516
					c0.352-0.301,0.741-0.634,1.165-0.996c0.428-0.366,0.947-0.664,1.477-1.037c1.081-0.706,2.387-1.389,3.896-1.95
					c0.751-0.288,1.566-0.497,2.404-0.743c0.429-0.081,0.865-0.163,1.308-0.247c0.443-0.095,0.898-0.151,1.363-0.18
					c1.852-0.236,3.844-0.129,5.864,0.204c2.02,0.356,4.059,1.031,5.994,2.004c1.933,0.978,3.711,2.338,5.315,3.802l0.128,0.123
					l0.028,0.025l0.072,0.064l0.289,0.256l0.577,0.512l0.577,0.51l0.56,0.4c0.381,0.26,0.722,0.553,1.13,0.793l1.225,0.717
					c1.679,0.846,3.399,1.595,5.173,1.981c1.766,0.354,3.521,0.634,5.199,0.557c0.843,0.042,1.647-0.128,2.443-0.165
					c0.779-0.135,1.548-0.234,2.265-0.417c1.435-0.367,2.738-0.809,3.852-1.313c0.547-0.27,1.082-0.493,1.546-0.754
					c0.463-0.269,0.888-0.516,1.273-0.739c0.753-0.475,1.316-0.902,1.721-1.172c0.404-0.271,0.6-0.441,0.6-0.441
					s-0.155,0.209-0.488,0.56c-0.34,0.343-0.787,0.916-1.469,1.527c-0.35,0.299-0.736,0.63-1.158,0.991
					c-0.424,0.363-0.946,0.663-1.475,1.036C152.665-87.115,151.358-86.434,149.849-85.871z"></path>
				<path fill="#305efc" class="fill-1" d="M145.684-80.978c-0.751,0.289-1.566,0.498-2.405,0.744c-0.857,0.145-1.741,0.382-2.672,0.427
					c-1.853,0.238-3.845,0.127-5.865-0.205c-2.02-0.357-4.061-1.028-5.994-2.006c-0.472-0.266-0.946-0.533-1.421-0.8
					c-0.475-0.271-0.93-0.63-1.395-0.946l-0.694-0.493l-0.586-0.501l-0.586-0.502l-0.293-0.251l-0.201-0.176l-0.139-0.134
					c-1.415-1.327-2.908-2.515-4.585-3.402c-1.677-0.851-3.399-1.596-5.173-1.983c-1.766-0.354-3.521-0.637-5.2-0.558
					c-0.844-0.042-1.647,0.13-2.444,0.165c-0.779,0.135-1.549,0.234-2.266,0.418c-1.435,0.368-2.739,0.809-3.853,1.314
					c-0.545,0.27-1.084,0.495-1.543,0.753c-0.46,0.267-0.883,0.512-1.265,0.733c-0.756,0.478-1.33,0.914-1.732,1.182
					c-0.403,0.271-0.597,0.44-0.597,0.44s0.157-0.21,0.491-0.562c0.343-0.344,0.78-0.908,1.458-1.516
					c0.352-0.301,0.741-0.634,1.165-0.996c0.428-0.366,0.947-0.664,1.477-1.037c1.081-0.706,2.387-1.388,3.896-1.95
					c0.751-0.288,1.566-0.497,2.404-0.743c0.429-0.081,0.865-0.163,1.308-0.247c0.443-0.095,0.898-0.151,1.363-0.18
					c1.852-0.236,3.844-0.129,5.864,0.204c2.02,0.356,4.059,1.031,5.994,2.004c1.933,0.978,3.711,2.337,5.315,3.802l0.128,0.123
					l0.029,0.026l0.072,0.064l0.289,0.256l0.577,0.512l0.576,0.51l0.56,0.4c0.381,0.26,0.722,0.553,1.13,0.793l1.224,0.717
					c1.679,0.846,3.399,1.595,5.173,1.981c1.766,0.354,3.521,0.634,5.199,0.557c0.843,0.042,1.647-0.128,2.443-0.165
					c0.779-0.135,1.548-0.234,2.266-0.417c1.435-0.367,2.739-0.809,3.852-1.313c0.547-0.27,1.082-0.493,1.546-0.754
					c0.463-0.269,0.888-0.516,1.273-0.739c0.753-0.475,1.316-0.902,1.721-1.171c0.404-0.271,0.6-0.441,0.6-0.441
					s-0.155,0.209-0.488,0.561c-0.34,0.343-0.788,0.916-1.47,1.527c-0.349,0.299-0.736,0.63-1.157,0.991
					c-0.424,0.363-0.946,0.663-1.475,1.036C148.5-82.222,147.193-81.54,145.684-80.978z"></path>
				<path fill="#305efc" class="fill-1" d="M141.52-76.085c-0.751,0.289-1.566,0.498-2.405,0.744c-0.857,0.145-1.741,0.382-2.672,0.427
					c-1.853,0.238-3.845,0.127-5.865-0.205c-2.02-0.357-4.061-1.028-5.994-2.006c-0.472-0.266-0.946-0.533-1.421-0.8
					c-0.474-0.271-0.929-0.63-1.395-0.946l-0.694-0.493l-0.586-0.501l-0.586-0.502l-0.293-0.251l-0.201-0.176l-0.139-0.134
					c-1.415-1.327-2.908-2.515-4.585-3.402c-1.677-0.851-3.399-1.596-5.173-1.983c-1.766-0.354-3.521-0.637-5.2-0.558
					c-0.844-0.042-1.647,0.13-2.444,0.165c-0.779,0.135-1.549,0.235-2.266,0.418c-1.435,0.368-2.739,0.809-3.853,1.314
					c-0.546,0.27-1.084,0.495-1.543,0.753c-0.46,0.267-0.883,0.512-1.265,0.733c-0.756,0.478-1.33,0.914-1.732,1.182
					c-0.403,0.271-0.597,0.44-0.597,0.44s0.157-0.21,0.491-0.562c0.343-0.344,0.78-0.908,1.458-1.516
					c0.352-0.301,0.741-0.634,1.165-0.996c0.428-0.366,0.947-0.664,1.477-1.037c1.081-0.706,2.387-1.389,3.896-1.95
					c0.751-0.288,1.566-0.497,2.404-0.743c0.429-0.081,0.865-0.163,1.308-0.247c0.443-0.095,0.898-0.151,1.363-0.18
					c1.852-0.236,3.844-0.129,5.864,0.204c2.02,0.356,4.059,1.031,5.994,2.004c1.933,0.978,3.711,2.337,5.315,3.802l0.128,0.123
					l0.028,0.025l0.072,0.064l0.289,0.256l0.577,0.512l0.576,0.51l0.56,0.4c0.381,0.26,0.722,0.553,1.13,0.793l1.224,0.717
					c1.679,0.846,3.399,1.595,5.173,1.981c1.766,0.354,3.521,0.634,5.199,0.557c0.843,0.042,1.647-0.128,2.443-0.165
					c0.779-0.135,1.548-0.234,2.266-0.417c1.435-0.367,2.738-0.809,3.852-1.313c0.547-0.27,1.082-0.493,1.546-0.754
					c0.463-0.269,0.888-0.516,1.273-0.739c0.753-0.475,1.316-0.902,1.721-1.171c0.404-0.271,0.6-0.441,0.6-0.441
					s-0.155,0.209-0.488,0.56c-0.34,0.343-0.787,0.916-1.469,1.527c-0.349,0.299-0.736,0.63-1.158,0.991
					c-0.424,0.363-0.946,0.663-1.475,1.036C144.335-77.329,143.029-76.647,141.52-76.085z"></path>
				<path fill="#305efc" class="fill-1" d="M137.355-71.191c-0.751,0.289-1.566,0.498-2.405,0.744c-0.857,0.145-1.741,0.382-2.672,0.426
					c-1.853,0.238-3.845,0.127-5.865-0.205c-2.02-0.357-4.061-1.028-5.994-2.006c-0.472-0.266-0.946-0.533-1.421-0.8
					c-0.474-0.271-0.929-0.63-1.395-0.946l-0.694-0.493l-0.586-0.501l-0.586-0.502l-0.293-0.251l-0.201-0.176l-0.139-0.134
					c-1.415-1.327-2.908-2.515-4.585-3.402c-1.677-0.851-3.399-1.596-5.173-1.983c-1.766-0.354-3.521-0.637-5.2-0.558
					c-0.844-0.042-1.647,0.13-2.444,0.165c-0.779,0.135-1.549,0.234-2.266,0.418c-1.435,0.368-2.739,0.809-3.853,1.314
					c-0.546,0.27-1.084,0.495-1.543,0.753c-0.46,0.267-0.883,0.512-1.265,0.733c-0.756,0.478-1.33,0.914-1.732,1.182
					c-0.403,0.271-0.597,0.44-0.597,0.44s0.156-0.21,0.491-0.562c0.343-0.344,0.78-0.908,1.458-1.516
					c0.352-0.301,0.741-0.634,1.165-0.996c0.428-0.366,0.947-0.664,1.477-1.038c1.081-0.706,2.387-1.388,3.896-1.95
					c0.751-0.288,1.566-0.497,2.404-0.743c0.429-0.081,0.865-0.163,1.308-0.247c0.443-0.095,0.898-0.151,1.363-0.18
					c1.853-0.236,3.844-0.129,5.864,0.204c2.02,0.356,4.059,1.031,5.994,2.004c1.932,0.978,3.711,2.337,5.315,3.802l0.128,0.123
					l0.029,0.025l0.072,0.064l0.289,0.256l0.577,0.512l0.576,0.51l0.56,0.4c0.381,0.26,0.722,0.553,1.131,0.793l1.224,0.717
					c1.679,0.846,3.399,1.595,5.173,1.981c1.766,0.354,3.521,0.634,5.199,0.557c0.843,0.042,1.647-0.128,2.443-0.165
					c0.779-0.135,1.548-0.234,2.265-0.417c1.435-0.367,2.739-0.809,3.852-1.313c0.547-0.27,1.082-0.493,1.546-0.754
					c0.463-0.269,0.888-0.516,1.272-0.739c0.753-0.475,1.316-0.902,1.721-1.171c0.404-0.271,0.6-0.441,0.6-0.441
					s-0.155,0.209-0.488,0.56c-0.34,0.343-0.787,0.916-1.469,1.527c-0.349,0.299-0.736,0.63-1.158,0.991
					c-0.424,0.363-0.946,0.663-1.475,1.036C140.171-72.436,138.864-71.754,137.355-71.191z"></path>
				<path fill="#305efc" class="fill-1" d="M82.775-72.641c0.343-0.344,0.78-0.908,1.458-1.516c0.352-0.301,0.741-0.634,1.165-0.996
					c0.428-0.366,0.947-0.664,1.477-1.037c1.081-0.706,2.387-1.388,3.896-1.95c0.751-0.288,1.566-0.497,2.405-0.743
					c0.429-0.081,0.865-0.163,1.308-0.247c0.443-0.095,0.898-0.151,1.363-0.18c1.853-0.236,3.844-0.129,5.864,0.204
					c2.02,0.356,4.059,1.031,5.994,2.004c1.933,0.978,3.711,2.337,5.315,3.802l0.128,0.124l0.028,0.025l0.072,0.064l0.289,0.256
					l0.577,0.512l0.576,0.51l0.56,0.4c0.381,0.26,0.722,0.553,1.131,0.793l1.224,0.717c1.679,0.846,3.399,1.595,5.173,1.981
					c1.766,0.354,3.521,0.634,5.199,0.557c0.843,0.042,1.647-0.128,2.443-0.165c0.779-0.135,1.548-0.234,2.265-0.417
					c1.435-0.367,2.739-0.809,3.852-1.313c0.547-0.27,1.082-0.493,1.546-0.754c0.463-0.269,0.888-0.516,1.273-0.739
					c0.753-0.475,1.316-0.902,1.721-1.171c0.404-0.271,0.599-0.441,0.599-0.441s-0.155,0.209-0.488,0.56
					c-0.34,0.343-0.787,0.916-1.469,1.527c-0.349,0.299-0.736,0.63-1.158,0.991c-0.424,0.363-0.946,0.663-1.475,1.037
					c-1.08,0.707-2.387,1.389-3.896,1.951c-0.751,0.289-1.566,0.498-2.405,0.744c-0.857,0.145-1.741,0.382-2.672,0.427
					c-1.853,0.238-3.845,0.127-5.865-0.205c-2.02-0.357-4.061-1.028-5.994-2.006c-0.472-0.266-0.946-0.533-1.421-0.8
					c-0.474-0.271-0.929-0.63-1.395-0.946l-0.694-0.493l-0.586-0.501l-0.586-0.502l-0.293-0.251l-0.201-0.176l-0.139-0.134
					c-1.415-1.327-2.908-2.515-4.585-3.402c-1.677-0.851-3.399-1.596-5.173-1.983c-1.766-0.354-3.521-0.637-5.2-0.558
					c-0.844-0.042-1.647,0.13-2.444,0.165c-0.779,0.135-1.548,0.235-2.266,0.418c-1.435,0.368-2.739,0.809-3.853,1.314
					c-0.546,0.27-1.084,0.495-1.543,0.753c-0.46,0.267-0.883,0.512-1.265,0.733c-0.756,0.478-1.33,0.914-1.732,1.182
					c-0.403,0.271-0.597,0.44-0.597,0.44S82.44-72.29,82.775-72.641z"></path>
			</g>
		</g>
		<g>
			<g>
				<path fill="#305efc" class="fill-1" d="M86.849-85.871c-0.751,0.289-1.566,0.498-2.405,0.744c-0.857,0.145-1.741,0.382-2.672,0.427
					c-1.853,0.238-3.845,0.127-5.865-0.205c-2.02-0.357-4.061-1.028-5.994-2.006c-0.472-0.266-0.946-0.533-1.421-0.8
					c-0.475-0.271-0.93-0.63-1.395-0.946l-0.694-0.493l-0.586-0.501l-0.586-0.502l-0.293-0.251l-0.2-0.176L64.6-90.714
					c-1.415-1.327-2.908-2.515-4.585-3.402c-1.677-0.851-3.399-1.596-5.173-1.983c-1.766-0.354-3.521-0.637-5.2-0.558
					c-0.844-0.042-1.647,0.13-2.444,0.165c-0.779,0.135-1.549,0.235-2.266,0.418c-1.435,0.368-2.739,0.809-3.853,1.314
					c-0.545,0.27-1.084,0.495-1.543,0.753c-0.46,0.267-0.883,0.512-1.265,0.733c-0.756,0.478-1.33,0.914-1.732,1.182
					c-0.403,0.271-0.597,0.44-0.597,0.44s0.157-0.211,0.491-0.562c0.343-0.344,0.78-0.908,1.458-1.516
					c0.352-0.301,0.741-0.634,1.165-0.996c0.428-0.366,0.947-0.664,1.477-1.037c1.081-0.706,2.387-1.389,3.896-1.95
					c0.751-0.288,1.566-0.497,2.404-0.743c0.429-0.081,0.865-0.163,1.308-0.247c0.443-0.095,0.898-0.151,1.363-0.18
					c1.852-0.236,3.844-0.129,5.864,0.204c2.02,0.356,4.059,1.031,5.994,2.004c1.932,0.978,3.711,2.338,5.315,3.802l0.128,0.123
					l0.028,0.025l0.072,0.064l0.289,0.256l0.577,0.512l0.576,0.51l0.56,0.4c0.381,0.26,0.722,0.553,1.13,0.793l1.225,0.717
					c1.679,0.846,3.399,1.595,5.173,1.981c1.766,0.354,3.521,0.634,5.199,0.557c0.843,0.042,1.647-0.128,2.443-0.165
					c0.779-0.135,1.548-0.234,2.265-0.417c1.435-0.367,2.739-0.809,3.852-1.313c0.547-0.27,1.082-0.493,1.546-0.754
					c0.463-0.269,0.888-0.516,1.272-0.739c0.753-0.475,1.316-0.902,1.721-1.172c0.404-0.271,0.6-0.441,0.6-0.441
					s-0.155,0.209-0.488,0.56c-0.34,0.343-0.787,0.916-1.469,1.527c-0.349,0.299-0.736,0.63-1.158,0.991
					c-0.424,0.363-0.946,0.663-1.475,1.036C89.665-87.115,88.358-86.434,86.849-85.871z"></path>
				<path fill="#305efc" class="fill-1" d="M82.684-80.978c-0.751,0.289-1.566,0.498-2.405,0.744c-0.857,0.145-1.741,0.382-2.672,0.427
					c-1.853,0.238-3.845,0.127-5.865-0.205c-2.02-0.357-4.061-1.028-5.994-2.006c-0.472-0.266-0.946-0.533-1.421-0.8
					c-0.474-0.271-0.93-0.63-1.395-0.946l-0.694-0.493l-0.586-0.501l-0.586-0.502l-0.293-0.251l-0.201-0.176l-0.139-0.134
					c-1.415-1.327-2.908-2.515-4.585-3.402c-1.677-0.851-3.399-1.596-5.173-1.983c-1.766-0.354-3.521-0.637-5.2-0.558
					c-0.844-0.042-1.647,0.13-2.444,0.165c-0.779,0.135-1.549,0.234-2.266,0.418c-1.435,0.368-2.739,0.809-3.853,1.314
					c-0.546,0.27-1.084,0.495-1.543,0.753c-0.46,0.267-0.883,0.512-1.265,0.733c-0.756,0.478-1.33,0.914-1.732,1.182
					c-0.403,0.271-0.597,0.44-0.597,0.44s0.156-0.21,0.491-0.562c0.343-0.344,0.78-0.908,1.458-1.516
					c0.352-0.301,0.741-0.634,1.165-0.996c0.428-0.366,0.947-0.664,1.477-1.037c1.081-0.706,2.387-1.388,3.896-1.95
					c0.751-0.288,1.566-0.497,2.404-0.743c0.429-0.081,0.865-0.163,1.308-0.247c0.443-0.095,0.898-0.151,1.363-0.18
					c1.852-0.236,3.844-0.129,5.864,0.204c2.02,0.356,4.059,1.031,5.994,2.004c1.933,0.978,3.711,2.337,5.315,3.802l0.128,0.123
					l0.029,0.026l0.072,0.064l0.289,0.256l0.577,0.512l0.576,0.51l0.56,0.4c0.381,0.26,0.722,0.553,1.13,0.793l1.224,0.717
					c1.679,0.846,3.399,1.595,5.173,1.981c1.766,0.354,3.521,0.634,5.199,0.557c0.843,0.042,1.647-0.128,2.443-0.165
					c0.779-0.135,1.548-0.234,2.265-0.417c1.435-0.367,2.739-0.809,3.852-1.313c0.547-0.27,1.082-0.493,1.546-0.754
					c0.463-0.269,0.888-0.516,1.273-0.739c0.753-0.475,1.316-0.902,1.721-1.171c0.404-0.271,0.599-0.441,0.599-0.441
					s-0.155,0.209-0.488,0.561c-0.34,0.343-0.787,0.916-1.47,1.527c-0.349,0.299-0.736,0.63-1.157,0.991
					c-0.424,0.363-0.946,0.663-1.475,1.036C85.5-82.222,84.193-81.54,82.684-80.978z"></path>
				<path fill="#305efc" class="fill-1" d="M78.52-76.085c-0.751,0.289-1.566,0.498-2.405,0.744c-0.857,0.145-1.741,0.382-2.672,0.427
					c-1.853,0.238-3.845,0.127-5.865-0.205c-2.02-0.357-4.061-1.028-5.994-2.006c-0.472-0.266-0.946-0.533-1.421-0.8
					c-0.474-0.271-0.93-0.63-1.395-0.946l-0.694-0.493l-0.586-0.501l-0.586-0.502l-0.293-0.251l-0.201-0.176l-0.139-0.134
					c-1.415-1.327-2.908-2.515-4.585-3.402c-1.677-0.851-3.399-1.596-5.173-1.983c-1.766-0.354-3.521-0.637-5.2-0.558
					c-0.844-0.042-1.647,0.13-2.444,0.165c-0.779,0.135-1.549,0.235-2.266,0.418c-1.435,0.368-2.739,0.809-3.853,1.314
					c-0.545,0.27-1.084,0.495-1.543,0.753c-0.46,0.267-0.883,0.512-1.265,0.733c-0.756,0.478-1.33,0.914-1.732,1.182
					c-0.403,0.271-0.597,0.44-0.597,0.44s0.156-0.21,0.491-0.562c0.343-0.344,0.78-0.908,1.458-1.516
					c0.352-0.301,0.741-0.634,1.165-0.996c0.428-0.366,0.947-0.664,1.477-1.037c1.081-0.706,2.387-1.389,3.896-1.95
					c0.751-0.288,1.566-0.497,2.404-0.743c0.429-0.081,0.865-0.163,1.308-0.247c0.443-0.095,0.898-0.151,1.363-0.18
					c1.852-0.236,3.844-0.129,5.864,0.204c2.02,0.356,4.059,1.031,5.994,2.004c1.932,0.978,3.711,2.337,5.315,3.802l0.128,0.123
					l0.028,0.025l0.072,0.064l0.289,0.256l0.577,0.512l0.576,0.51l0.56,0.4c0.381,0.26,0.722,0.553,1.13,0.793l1.224,0.717
					c1.679,0.846,3.399,1.595,5.173,1.981c1.766,0.354,3.521,0.634,5.199,0.557c0.843,0.042,1.647-0.128,2.443-0.165
					c0.779-0.135,1.548-0.234,2.266-0.417c1.435-0.367,2.738-0.809,3.852-1.313c0.547-0.27,1.082-0.493,1.546-0.754
					c0.463-0.269,0.888-0.516,1.273-0.739c0.753-0.475,1.316-0.902,1.721-1.171c0.404-0.271,0.599-0.441,0.599-0.441
					s-0.155,0.209-0.488,0.56c-0.34,0.343-0.787,0.916-1.469,1.527c-0.349,0.299-0.736,0.63-1.158,0.991
					c-0.424,0.363-0.946,0.663-1.475,1.036C81.335-77.329,80.029-76.647,78.52-76.085z"></path>
				<path fill="#305efc" class="fill-1" d="M74.355-71.191c-0.751,0.289-1.566,0.498-2.405,0.744c-0.857,0.145-1.741,0.382-2.672,0.426
					c-1.853,0.238-3.845,0.127-5.865-0.205c-2.02-0.357-4.061-1.028-5.994-2.006c-0.472-0.266-0.946-0.533-1.421-0.8
					c-0.474-0.271-0.93-0.63-1.395-0.946L53.91-74.47l-0.586-0.501l-0.586-0.502l-0.293-0.251l-0.201-0.176l-0.139-0.134
					c-1.415-1.327-2.908-2.515-4.585-3.402c-1.677-0.851-3.399-1.596-5.173-1.983c-1.766-0.354-3.521-0.637-5.2-0.558
					c-0.844-0.042-1.647,0.13-2.444,0.165c-0.779,0.135-1.549,0.234-2.266,0.418c-1.435,0.368-2.739,0.809-3.853,1.314
					c-0.545,0.27-1.084,0.495-1.543,0.753c-0.46,0.267-0.883,0.512-1.265,0.733c-0.756,0.478-1.33,0.914-1.732,1.182
					c-0.403,0.271-0.597,0.44-0.597,0.44s0.156-0.21,0.491-0.562c0.343-0.344,0.78-0.908,1.458-1.516
					c0.352-0.301,0.741-0.634,1.165-0.996c0.428-0.366,0.947-0.664,1.477-1.038c1.081-0.706,2.387-1.388,3.896-1.95
					c0.751-0.288,1.566-0.497,2.404-0.743c0.429-0.081,0.865-0.163,1.308-0.247c0.443-0.095,0.898-0.151,1.363-0.18
					c1.853-0.236,3.844-0.129,5.864,0.204c2.02,0.356,4.059,1.031,5.994,2.004c1.932,0.978,3.711,2.337,5.315,3.802l0.128,0.123
					l0.029,0.025l0.072,0.064l0.289,0.256l0.577,0.512l0.576,0.51l0.56,0.4c0.381,0.26,0.722,0.553,1.131,0.793l1.224,0.717
					c1.679,0.846,3.399,1.595,5.173,1.981c1.766,0.354,3.521,0.634,5.199,0.557c0.843,0.042,1.647-0.128,2.443-0.165
					c0.779-0.135,1.548-0.234,2.265-0.417c1.435-0.367,2.739-0.809,3.852-1.313c0.547-0.27,1.082-0.493,1.546-0.754
					c0.463-0.269,0.888-0.516,1.272-0.739c0.753-0.475,1.316-0.902,1.721-1.171c0.404-0.271,0.6-0.441,0.6-0.441
					s-0.155,0.209-0.488,0.56c-0.34,0.343-0.787,0.916-1.469,1.527c-0.349,0.299-0.736,0.63-1.158,0.991
					c-0.424,0.363-0.946,0.663-1.475,1.036C77.171-72.436,75.864-71.754,74.355-71.191z"></path>
				<path fill="#305efc" class="fill-1" d="M19.775-72.641c0.343-0.344,0.78-0.908,1.458-1.516c0.352-0.301,0.741-0.634,1.165-0.996
					c0.428-0.366,0.947-0.664,1.477-1.037c1.081-0.706,2.387-1.388,3.896-1.95c0.751-0.288,1.566-0.497,2.405-0.743
					c0.429-0.081,0.865-0.163,1.308-0.247c0.443-0.095,0.898-0.151,1.363-0.18c1.853-0.236,3.844-0.129,5.864,0.204
					c2.02,0.356,4.059,1.031,5.994,2.004c1.933,0.978,3.711,2.337,5.315,3.802l0.128,0.124l0.028,0.025l0.072,0.064l0.289,0.256
					l0.577,0.512l0.576,0.51l0.56,0.4c0.381,0.26,0.722,0.553,1.131,0.793l1.224,0.717c1.679,0.846,3.399,1.595,5.173,1.981
					c1.766,0.354,3.521,0.634,5.199,0.557c0.843,0.042,1.647-0.128,2.443-0.165c0.779-0.135,1.548-0.234,2.265-0.417
					c1.435-0.367,2.739-0.809,3.852-1.313c0.547-0.27,1.082-0.493,1.546-0.754c0.463-0.269,0.888-0.516,1.273-0.739
					c0.753-0.475,1.316-0.902,1.721-1.171c0.404-0.271,0.599-0.441,0.599-0.441s-0.155,0.209-0.488,0.56
					c-0.34,0.343-0.787,0.916-1.469,1.527c-0.349,0.299-0.736,0.63-1.158,0.991c-0.424,0.363-0.946,0.663-1.475,1.037
					c-1.08,0.707-2.387,1.389-3.896,1.951c-0.751,0.289-1.566,0.498-2.405,0.744c-0.857,0.145-1.741,0.382-2.672,0.427
					c-1.853,0.238-3.845,0.127-5.865-0.205c-2.02-0.357-4.061-1.028-5.994-2.006c-0.472-0.266-0.946-0.533-1.421-0.8
					c-0.474-0.271-0.93-0.63-1.395-0.946l-0.694-0.493l-0.586-0.501l-0.586-0.502l-0.293-0.251l-0.201-0.176l-0.139-0.134
					c-1.415-1.327-2.908-2.515-4.585-3.402c-1.677-0.851-3.399-1.596-5.173-1.983c-1.766-0.354-3.521-0.637-5.2-0.558
					c-0.844-0.042-1.647,0.13-2.444,0.165c-0.779,0.135-1.548,0.235-2.266,0.418c-1.435,0.368-2.739,0.809-3.853,1.314
					c-0.546,0.27-1.084,0.495-1.543,0.753c-0.46,0.267-0.883,0.512-1.265,0.733c-0.756,0.478-1.33,0.914-1.732,1.182
					c-0.403,0.271-0.597,0.44-0.597,0.44S19.44-72.29,19.775-72.641z"></path>
			</g>
		</g>
	</g>
</pattern>
<pattern id="wave-pattern-scale" xlink:href="#New_Pattern_4" patternTransform="matrix(3 0 0 3 0 0)">
</pattern>
<rect fill="url(#wave-pattern-scale)" width="512" height="512"></rect>
                    </svg>

                    